<svg xmlns="http://www.w3.org/2000/svg" width="23.444" height="23.444" viewBox="0 0 23.444 23.444">
  <g id="Group_9" data-name="Group 9" transform="translate(-80 -467.112)">
    <path id="Path_6" data-name="Path 6" d="M20.422,1.832H18.315V.733a.733.733,0,0,0-1.465,0v1.1H6.594V.733a.733.733,0,0,0-1.465,0v1.1H3.022A3.025,3.025,0,0,0,0,4.854V20.422a3.025,3.025,0,0,0,3.022,3.022h17.4a3.025,3.025,0,0,0,3.022-3.022V4.854A3.025,3.025,0,0,0,20.422,1.832Zm1.557,18.59a1.557,1.557,0,0,1-1.557,1.557H3.022a1.557,1.557,0,0,1-1.557-1.557V8.288a.229.229,0,0,1,.229-.229H21.749a.229.229,0,0,1,.229.229Z" transform="translate(80 467.112)" fill="#a5aab5"/>
    <g id="Group_8" data-name="Group 8" transform="translate(83.246 476.375)">
      <path id="Path_14" data-name="Path 14" d="M353.351,166.66a.74.74,0,0,0-1.046,0l-.721.721-.721-.721a.74.74,0,0,0-1.046,1.046l.721.721-.721.721a.74.74,0,1,0,1.046,1.046l.721-.721.721.721a.74.74,0,0,0,1.046-1.046l-.721-.721.721-.721A.74.74,0,0,0,353.351,166.66Z" transform="translate(-336.399 -166.443)" fill="#a5aab5"/>
      <path id="Path_15" data-name="Path 15" d="M219.531,166.659a.74.74,0,0,0-1.046,0l-.721.721-.721-.721A.74.74,0,0,0,216,167.705l.721.721-.721.721a.74.74,0,1,0,1.046,1.046l.721-.721.721.721a.74.74,0,1,0,1.046-1.046l-.721-.721.721-.721A.74.74,0,0,0,219.531,166.659Z" transform="translate(-209.18 -166.442)" fill="#a5aab5"/>
      <path id="Path_16" data-name="Path 16" d="M85.713,166.66a.74.74,0,0,0-1.046,0l-.721.721-.721-.721a.74.74,0,0,0-1.046,1.046l.721.721-.721.721a.74.74,0,1,0,1.046,1.046l.721-.721.721.721a.74.74,0,0,0,1.046-1.046l-.721-.721.721-.721A.74.74,0,0,0,85.713,166.66Z" transform="translate(-81.962 -166.443)" fill="#a5aab5"/>
      <path id="Path_17" data-name="Path 17" d="M353.351,316.766a.74.74,0,0,0-1.046,0l-.721.721-.721-.721a.74.74,0,1,0-1.046,1.046l.721.721-.721.721a.74.74,0,1,0,1.046,1.046l.721-.721.721.721a.74.74,0,0,0,1.046-1.046l-.721-.721.721-.721A.74.74,0,0,0,353.351,316.766Z" transform="translate(-336.399 -309.146)" fill="#a5aab5"/>
      <path id="Path_18" data-name="Path 18" d="M219.531,316.767a.74.74,0,0,0-1.046,0l-.721.721-.721-.721A.74.74,0,0,0,216,317.813l.721.721-.721.721a.74.74,0,1,0,1.046,1.046l.721-.721.721.721a.74.74,0,0,0,1.046-1.046l-.721-.721.721-.721A.74.74,0,0,0,219.531,316.767Z" transform="translate(-209.18 -309.146)" fill="#a5aab5"/>
      <path id="Path_19" data-name="Path 19" d="M85.713,316.766a.74.74,0,0,0-1.046,0l-.721.721-.721-.721a.74.74,0,0,0-1.046,1.046l.721.721-.721.721a.74.74,0,1,0,1.046,1.046l.721-.721.721.721a.74.74,0,0,0,1.046-1.046l-.721-.721.721-.721A.74.74,0,0,0,85.713,316.766Z" transform="translate(-81.962 -309.146)" fill="#a5aab5"/>
    </g>
  </g>
</svg>
