<svg xmlns="http://www.w3.org/2000/svg" width="18.677" height="26.001" viewBox="0 0 18.677 26.001">
  <g id="book" transform="translate(-72.111)">
    <path id="Path_43" data-name="Path 43" d="M75,0l.848,9.648L75,19.388H74.91a2.8,2.8,0,0,0-2.8,2.8V1.831A1.831,1.831,0,0,1,73.942,0Z" transform="translate(0 0)" fill="#288771"/>
    <path id="Path_44" data-name="Path 44" d="M114.178,413.161v3.426H98.355a1.181,1.181,0,0,1-1.181-1.181v-1.065a1.181,1.181,0,0,1,1.181-1.181h15.823Z" transform="translate(-23.79 -392.179)" fill="#d9ecfd"/>
    <path id="Path_45" data-name="Path 45" d="M114.178,446.9v1.713H98.355a1.181,1.181,0,0,1-1.181-1.181V446.9Z" transform="translate(-23.79 -424.202)" fill="#c5e2ff"/>
    <path id="Path_46" data-name="Path 46" d="M90.424,0H75V19.388h-.088a2.8,2.8,0,0,0-2.8,2.8V23.2a2.8,2.8,0,0,0,2.8,2.8H90.424a.366.366,0,0,0,.366-.366v-.942a.366.366,0,0,0-.366-.366H74.912A1.125,1.125,0,0,1,73.787,23.2V22.187a1.125,1.125,0,0,1,1.125-1.125H90.424a.366.366,0,0,0,.366-.366V.366A.366.366,0,0,0,90.424,0Z" transform="translate(-0.002)" fill="#288771"/>
    <path id="Path_47" data-name="Path 47" d="M74.913,381.789a2.8,2.8,0,0,0-2.8,2.8V385.6a2.8,2.8,0,0,0,2.8,2.8H90.425a.366.366,0,0,0,.366-.366v-.942a.366.366,0,0,0-.366-.366H74.913a1.125,1.125,0,0,1-1.125-1.125v-1.015a1.125,1.125,0,0,1,1.125-1.125H90.425a.366.366,0,0,0,.366-.366v-1.308H74.913Z" transform="translate(-0.003 -362.401)" fill="#288771"/>
    <path id="Path_48" data-name="Path 48" d="M200.662,61.5h-8.726a.355.355,0,0,1-.355-.355V57.637a.355.355,0,0,1,.355-.355h8.726a.355.355,0,0,1,.355.355v3.512A.355.355,0,0,1,200.662,61.5Z" transform="translate(-113.403 -54.373)" fill="#fcca69"/>
    <g id="Group_59" data-name="Group 59" transform="translate(79.47 12.247)">
      <g id="Group_58" data-name="Group 58">
        <path id="Path_49" data-name="Path 49" d="M223.479,241.943H217.41a.392.392,0,1,1,0-.785h6.069a.392.392,0,1,1,0,.785Z" transform="translate(-217.018 -241.158)" fill="#d9ecfd"/>
      </g>
    </g>
    <g id="Group_61" data-name="Group 61" transform="translate(79.47 14.121)">
      <g id="Group_60" data-name="Group 60">
        <path id="Path_50" data-name="Path 50" d="M223.479,278.841H217.41a.392.392,0,1,1,0-.785h6.069a.392.392,0,1,1,0,.785Z" transform="translate(-217.018 -278.056)" fill="#d9ecfd"/>
      </g>
    </g>
  </g>
</svg>
