<svg xmlns="http://www.w3.org/2000/svg" width="17.815" height="17.794" viewBox="0 0 17.815 17.794">
  <path id="Path_6" data-name="Path 6" d="M15.518,1.4h-1.6V.563a.557.557,0,0,0-1.113,0V1.4H5.011V.563A.557.557,0,0,0,3.9.563V1.4H2.3A2.3,2.3,0,0,0,0,3.695v11.83a2.3,2.3,0,0,0,2.3,2.3H15.518a2.3,2.3,0,0,0,2.3-2.3V3.695A2.3,2.3,0,0,0,15.518,1.4ZM16.7,15.525a1.183,1.183,0,0,1-1.183,1.183H2.3a1.183,1.183,0,0,1-1.183-1.183V6.3a.174.174,0,0,1,.174-.174H16.527A.174.174,0,0,1,16.7,6.3Z" transform="translate(0 -0.027)" fill="#288771"/>
</svg>
