<svg xmlns="http://www.w3.org/2000/svg" width="20.505" height="25.237" viewBox="0 0 20.505 25.237">
  <g id="files" transform="translate(-48 0)">
    <g id="Group_3" data-name="Group 3" transform="translate(48 0)">
      <g id="Group_2" data-name="Group 2" transform="translate(0 0)">
        <path id="Path_11" data-name="Path 11" d="M68.276,4.96,63.544.228A.789.789,0,0,0,62.984,0H50.366A2.366,2.366,0,0,0,48,2.366v20.5a2.366,2.366,0,0,0,2.366,2.366H66.139A2.366,2.366,0,0,0,68.5,22.871V5.52A.789.789,0,0,0,68.276,4.96Zm-1.349,17.91a.789.789,0,0,1-.789.789H50.366a.789.789,0,0,1-.789-.789V2.366a.789.789,0,0,1,.789-.789H62.2V4.732a1.577,1.577,0,0,0,1.577,1.577h3.155Z" transform="translate(-48 0)" fill="#a5aab5"/>
        <rect id="Rectangle_2" data-name="Rectangle 2" width="1" height="1" transform="translate(15 18.722)" fill="#a5aab5"/>
        <rect id="Rectangle_3" data-name="Rectangle 3" width="13" height="1" transform="translate(3 11.722)" fill="#a5aab5"/>
        <rect id="Rectangle_4" data-name="Rectangle 4" width="13" height="1" transform="translate(3 14.722)" fill="#a5aab5"/>
        <rect id="Rectangle_5" data-name="Rectangle 5" width="11" height="1" transform="translate(3 18.722)" fill="#a5aab5"/>
      </g>
    </g>
  </g>
</svg>
