<svg id="dashboard" xmlns="http://www.w3.org/2000/svg" width="23.444" height="23.444" viewBox="0 0 23.444 23.444">
  <path id="Path_7" data-name="Path 7" d="M9.036,0H1.709A1.711,1.711,0,0,0,0,1.709v4.4a1.711,1.711,0,0,0,1.709,1.71H9.036a1.711,1.711,0,0,0,1.71-1.71v-4.4A1.711,1.711,0,0,0,9.036,0Zm0,0" fill="#288771"/>
  <path id="Path_8" data-name="Path 8" d="M9.036,213.332H1.709A1.711,1.711,0,0,0,0,215.042V225.3a1.711,1.711,0,0,0,1.709,1.709H9.036a1.711,1.711,0,0,0,1.71-1.709V215.042A1.711,1.711,0,0,0,9.036,213.332Zm0,0" transform="translate(0 -203.564)" fill="#288771"/>
  <path id="Path_9" data-name="Path 9" d="M286.368,341.332h-7.326a1.711,1.711,0,0,0-1.71,1.71v4.4a1.711,1.711,0,0,0,1.71,1.709h7.326a1.711,1.711,0,0,0,1.709-1.709v-4.4A1.711,1.711,0,0,0,286.368,341.332Zm0,0" transform="translate(-264.634 -325.703)" fill="#288771"/>
  <path id="Path_10" data-name="Path 10" d="M286.368,0h-7.326a1.711,1.711,0,0,0-1.71,1.709V11.966a1.711,1.711,0,0,0,1.71,1.71h7.326a1.711,1.711,0,0,0,1.709-1.71V1.709A1.711,1.711,0,0,0,286.368,0Zm0,0" transform="translate(-264.634 0)" fill="#288771"/>
</svg>
