<svg xmlns="http://www.w3.org/2000/svg" width="1007.434" height="1080" viewBox="0 0 1007.434 1080">
  <g id="Group_130" data-name="Group 130" transform="translate(-912.566)">
    <path id="Rectangle_54" data-name="Rectangle 54" d="M321.5,0h0A321.5,321.5,0,0,1,643,321.5v0A321.5,321.5,0,0,1,321.5,643H0a0,0,0,0,1,0,0V321.5A321.5,321.5,0,0,1,321.5,0Z" transform="translate(1277 1080) rotate(-90)" fill="#ecaa00"/>
    <path id="Path_66" data-name="Path 66" d="M1498.811-391v289.7L1143.44-87.561s53.658-125.016,142.5-200.876S1498.811-391,1498.811-391Z" transform="translate(-230.874 391)" fill="#52c3fc"/>
    <path id="Path_63" data-name="Path 63" d="M3706.559-486l.6,436.708s274.862-16.267,434.7-125.443S4346.49-486,4346.49-486Z" transform="translate(-2429 486)" fill="#288771"/>
  </g>
</svg>
