<svg xmlns="http://www.w3.org/2000/svg" width="49" height="47" viewBox="0 0 49 47">
  <g id="Group_81" data-name="Group 81" transform="translate(-50 -50)">
    <path id="Rectangle_1" data-name="Rectangle 1" d="M0,0H49a0,0,0,0,1,0,0V22.5A24.5,24.5,0,0,1,24.5,47h0A24.5,24.5,0,0,1,0,22.5V0A0,0,0,0,1,0,0Z" transform="translate(50 50)" fill="#288771"/>
    <g id="Group_1" data-name="Group 1" transform="translate(64.328 56.783)">
      <path id="Path_2" data-name="Path 2" d="M4.568.565,5.709,0l.014,13.108c0,2.458-1.2,3.044-4.436,4.665L0,18.429.221,5.395C.221,2.937,2.246,1.758,4.568.565Z" transform="matrix(0.891, 0.454, -0.454, 0.891, 8.367, 0)" fill="#fff"/>
      <path id="Path_4" data-name="Path 4" d="M4.568,17.865l1.142.565L5.723,5.321c0-2.458-1.2-3.044-4.436-4.665L0,0,.221,13.035C.221,15.492,2.246,16.671,4.568,17.865Z" transform="matrix(-0.891, 0.454, -0.454, -0.891, 13.466, 31.332)" fill="#fff"/>
      <path id="Path_5" data-name="Path 5" d="M4.568,17.865l1.142.565L5.723,5.321c0-2.458-1.2-3.044-4.436-4.665L0,0,.221,13.035C.221,15.492,2.246,16.671,4.568,17.865Z" transform="matrix(-0.891, 0.454, -0.454, -0.891, 20.922, 31.332)" fill="#fff"/>
      <path id="Path_3" data-name="Path 3" d="M4.568.565,5.709,0l.014,13.108c0,2.458-1.2,3.044-4.436,4.665L0,18.429.221,5.395C.221,2.937,2.246,1.758,4.568.565Z" transform="matrix(0.891, 0.454, -0.454, 0.891, 15.822, 0)" fill="#fff"/>
    </g>
  </g>
</svg>
