<svg id="ringing" xmlns="http://www.w3.org/2000/svg" width="30.344" height="36.412" viewBox="0 0 30.344 36.412">
  <g id="Group_54" data-name="Group 54" transform="translate(12.137 0)">
    <path id="Path_40" data-name="Path 40" d="M15.31,6.342a.759.759,0,0,1-.759-.759V3.034a1.517,1.517,0,0,0-3.034,0V5.583a.759.759,0,1,1-1.517,0V3.034a3.034,3.034,0,1,1,6.069,0V5.583A.758.758,0,0,1,15.31,6.342Z" transform="translate(-10 0)"/>
  </g>
  <g id="Group_55" data-name="Group 55" transform="translate(9.862 30.344)">
    <path id="Path_41" data-name="Path 41" d="M13.81,26.069a5.316,5.316,0,0,1-5.31-5.31.759.759,0,0,1,1.517,0,3.793,3.793,0,1,0,7.586,0,.759.759,0,0,1,1.517,0A5.316,5.316,0,0,1,13.81,26.069Z" transform="translate(-8.5 -20)"/>
  </g>
  <g id="Group_56" data-name="Group 56" transform="translate(0 4.552)">
    <path id="Path_42" data-name="Path 42" d="M30.068,30.309H4.276A2.276,2.276,0,0,1,2.8,26.3a10.548,10.548,0,0,0,3.755-8.074V13.62a10.62,10.62,0,0,1,21.241,0v4.609a10.536,10.536,0,0,0,3.743,8.064,2.276,2.276,0,0,1-1.467,4.016ZM17.172,4.517a9.112,9.112,0,0,0-9.1,9.1v4.609a12.053,12.053,0,0,1-4.28,9.223.758.758,0,0,0,.487,1.34H30.068a.759.759,0,0,0,.493-1.335,12.063,12.063,0,0,1-4.286-9.227V13.62a9.112,9.112,0,0,0-9.1-9.1Z" transform="translate(-2 -3)"/>
  </g>
</svg>
