<svg xmlns="http://www.w3.org/2000/svg" width="18.575" height="17.67" viewBox="0 0 18.575 17.67">
  <path id="Path_56" data-name="Path 56" d="M17,12.979a5.237,5.237,0,0,0-7.326,0L1.139,21.517a4,4,0,0,0,5.655,5.655l7.73-7.73A2.573,2.573,0,1,0,10.885,15.8L3.491,23.2a.672.672,0,0,0,.95.95l7.394-7.394a1.229,1.229,0,0,1,1.738,1.738l-7.73,7.73a2.655,2.655,0,0,1-3.755-3.755l8.536-8.536a3.894,3.894,0,0,1,5.508,5.506L7.6,27.973a.672.672,0,1,0,.948.948l8.536-8.536A5.237,5.237,0,0,0,17,12.979Z" transform="translate(0 -11.486)" fill="#212121"/>
</svg>
