<svg xmlns="http://www.w3.org/2000/svg" width="23.444" height="23.445" viewBox="0 0 23.444 23.445">
  <g id="income" transform="translate(-178.749)">
    <path id="Path_12" data-name="Path 12" d="M190.471,23.445a11.722,11.722,0,1,0-11.722-11.722A11.735,11.735,0,0,0,190.471,23.445ZM189.083,4.832V4.514a1.388,1.388,0,0,1,2.776,0v.32a3.671,3.671,0,0,1,2.895,3.583,1.388,1.388,0,1,1-2.776,0,.89.89,0,0,0-.888-.888h-1.245a.888.888,0,0,0-.528,1.6l1.155.855,2.806,2.077a3.68,3.68,0,0,1,1.484,2.921V15a3.667,3.667,0,0,1-2.9,3.61v.325a1.388,1.388,0,0,1-2.776,0v-.32a3.665,3.665,0,0,1-2.893-3.56,1.388,1.388,0,0,1,1.379-1.4h.009a1.389,1.389,0,0,1,1.388,1.38.887.887,0,0,0,.893.883l1.243-.007a.888.888,0,0,0,.883-.895V15a.892.892,0,0,0-.36-.708l-1.154-.854-2.807-2.077a3.665,3.665,0,0,1,1.419-6.53Z" transform="translate(0)" fill="#a5aab5"/>
  </g>
</svg>
